<svg width="599" height="340" viewBox="0 0 599 340" fill="none" xmlns="http://www.w3.org/2000/svg">
<path d="M597.806 20.7246C598.812 19.7795 598.862 18.1973 597.917 17.1908L582.514 0.789036C581.569 -0.217456 579.987 -0.267182 578.981 0.677985C577.974 1.62314 577.924 3.20528 578.87 4.21177L592.56 18.7912L577.981 32.4821C576.975 33.4272 576.925 35.0094 577.87 36.0159C578.815 37.0224 580.397 37.0721 581.404 36.1269L597.806 20.7246ZM106.3 318.581C106.95 317.363 106.49 315.848 105.272 315.198L85.4228 304.603C84.2048 303.953 82.6903 304.413 82.0401 305.631C81.3899 306.849 81.8502 308.363 83.0683 309.014L100.712 318.432L91.2938 336.075C90.6436 337.293 91.104 338.808 92.322 339.458C93.5401 340.108 95.0546 339.648 95.7048 338.43L106.3 318.581ZM596.094 18.9022L596.173 16.4035C245.96 5.39727 80.649 92.5115 23.8326 177.261C-4.58837 219.655 -5.90238 261.646 10.9865 290.041C27.9345 318.535 62.7679 332.578 104.822 319.796L104.095 317.404L103.368 315.012C63.1725 327.229 30.8819 313.71 15.2838 287.485C-0.37355 261.161 0.344117 221.277 27.9857 180.045C83.2944 97.5447 246.232 10.4083 596.016 21.401L596.094 18.9022Z" fill="#FF0000"/>
</svg>
