<svg width="312" height="222" viewBox="0 0 312 222" fill="none" xmlns="http://www.w3.org/2000/svg">
<path d="M305.33 2.75907C305.187 1.38579 306.184 0.156563 307.558 0.0135405C308.931 -0.129494 310.16 0.867817 310.303 2.2411L307.817 2.50008L305.33 2.75907ZM0.184422 197.485C-0.334224 196.206 0.282653 194.748 1.56225 194.229L22.4145 185.777C23.6941 185.259 25.1519 185.876 25.6705 187.155C26.1892 188.435 25.5723 189.893 24.2927 190.411L5.75735 197.924L13.2701 216.459C13.7887 217.739 13.1718 219.197 11.8922 219.715C10.6126 220.234 9.15488 219.617 8.63624 218.338L0.184422 197.485ZM307.817 2.50008L310.303 2.2411C317.094 67.4432 286.851 136.458 231.447 179.233C175.937 222.09 95.296 238.528 1.52707 198.849L2.50134 196.546L3.47561 194.244C95.6754 233.26 174.389 216.968 228.392 175.275C282.501 133.499 311.932 66.143 305.33 2.75907L307.817 2.50008Z" fill="#FF0000"/>
</svg>
