<svg width="222" height="312" viewBox="0 0 222 312" fill="none" xmlns="http://www.w3.org/2000/svg">
<path d="M218.675 5.91604C220.048 6.05907 221.277 5.06175 221.42 3.68848C221.563 2.31519 220.566 1.08597 219.192 0.942931L218.934 3.42948L218.675 5.91604ZM23.9483 311.062C25.2279 311.58 26.6857 310.963 27.2043 309.684L35.6561 288.832C36.1748 287.552 35.5579 286.094 34.2783 285.576C32.9987 285.057 31.541 285.674 31.0223 286.953L23.5096 305.489L4.97424 297.976C3.69464 297.457 2.23688 298.074 1.71824 299.354C1.19959 300.633 1.81646 302.091 3.09606 302.61L23.9483 311.062ZM218.934 3.42948L219.192 0.942931C153.99 -5.84817 84.9759 24.3947 42.2011 79.7987C-0.656018 135.309 -17.0946 215.95 22.5851 309.719L24.8874 308.745L27.1898 307.77C-11.8259 215.571 4.46548 136.857 46.1588 82.8543C87.9343 28.7446 155.291 -0.685717 218.675 5.91604L218.934 3.42948Z" fill="#FF0000"/>
</svg>
