<svg width="332" height="180" viewBox="0 0 332 180" fill="none" xmlns="http://www.w3.org/2000/svg">
<path d="M4.97105 2.10715C4.75486 0.743463 3.47411 -0.186775 2.11044 0.0294061C0.746761 0.245595 -0.183465 1.52633 0.0326926 2.89001L2.50187 2.49858L4.97105 2.10715ZM331.487 130.264C331.632 128.891 330.637 127.661 329.264 127.516L306.888 125.152C305.515 125.007 304.284 126.002 304.139 127.375C303.994 128.748 304.99 129.979 306.363 130.124L326.252 132.225L324.151 152.115C324.006 153.488 325.001 154.718 326.375 154.863C327.748 155.008 328.978 154.013 329.123 152.64L331.487 130.264ZM2.50187 2.49858L0.0326926 2.89001C7.85741 52.2486 50.7473 116.473 111.371 152.417C141.746 170.426 176.685 181.407 214.022 179.801C251.381 178.194 290.954 163.994 330.573 131.945L329.001 130.002L327.429 128.058C288.548 159.509 249.982 173.25 213.807 174.806C177.611 176.363 143.622 165.726 113.921 148.116C54.3905 112.82 12.5308 49.7945 4.97105 2.10715L2.50187 2.49858Z" fill="#FF0000"/>
</svg>
