<svg width="351" height="191" viewBox="0 0 351 191" fill="none" xmlns="http://www.w3.org/2000/svg">
<path d="M4.13113 49.5226C3.08451 50.4231 1.50602 50.3047 0.60551 49.2581C-0.295026 48.2114 -0.176608 46.633 0.870005 45.7324L2.50057 47.6275L4.13113 49.5226ZM338.092 189.174C337.336 190.33 335.787 190.654 334.631 189.899L315.798 177.587C314.642 176.832 314.318 175.283 315.073 174.127C315.829 172.971 317.378 172.647 318.534 173.402L335.274 184.346L346.218 167.605C346.973 166.45 348.523 166.125 349.678 166.881C350.834 167.636 351.158 169.185 350.403 170.341L338.092 189.174ZM2.50057 47.6275L0.870005 45.7324C50.5623 2.97607 124.503 -11.53 191.234 9.59556C258.093 30.7618 317.578 87.6364 338.446 187.294L335.999 187.806L333.552 188.319C313.033 90.3289 254.768 34.9539 189.725 14.3624C124.553 -6.26968 52.4378 7.95845 4.13113 49.5226L2.50057 47.6275Z" fill="#FF0000"/>
</svg>
