<svg width="1920" height="138" viewBox="0 0 1920 138" fill="none" xmlns="http://www.w3.org/2000/svg">
<path d="M241 75.5C274.333 65.5 293 31.0006 354 47.0004C415 63.0001 463.5 -0.499039 525 68.5002C586.5 137.5 660.5 46.9995 689 46.9995C717.5 46.9995 714 123.5 743 127" stroke="#FF0000" stroke-width="4" stroke-linecap="round"/>
<circle cx="240" cy="76" r="11" fill="black"/>
<circle cx="744" cy="127" r="11" fill="black"/>
<path d="M-88 32.3079C-18.6925 -12.381 106 94.0018 240.5 76.4982" stroke="#FF0000" stroke-width="4" stroke-linecap="round"/>
<path d="M742 127C811.5 145.622 799.5 61.3743 897 87.4993C994.5 113.624 1001.5 135.499 1051 135.499C1100.5 135.499 1137.5 32.9993 1184.5 79.9993C1231.5 126.999 1233.17 70.9993 1252 70.9993" stroke="#FF0000" stroke-width="4" stroke-linecap="round"/>
<circle cx="1245" cy="76" r="11" fill="black"/>
<path d="M1247 76.5306C1247 76.5306 1264 79.53 1322.5 38.5306C1381 -2.46875 1505.3 94.1306 1580.5 76.5306C1674.5 54.5306 1666 0.530625 1778 2.03062C1867.6 3.23062 1934.33 61.1977 1956.5 90.0312" stroke="#FF0000" stroke-width="4" stroke-linecap="round"/>
</svg>
