<svg width="381" height="229" viewBox="0 0 381 229" fill="none" xmlns="http://www.w3.org/2000/svg">
<path d="M4.91622 1.8559C4.56047 0.521815 3.19059 -0.27129 1.8565 0.0844645C0.522388 0.440195 -0.270709 1.81009 0.0850465 3.1442L2.50063 2.50005L4.91622 1.8559ZM380.419 180.14C380.771 178.805 379.975 177.437 378.64 177.085L356.885 171.343C355.55 170.991 354.182 171.788 353.829 173.123C353.477 174.458 354.274 175.825 355.609 176.178L374.947 181.281L369.843 200.619C369.491 201.954 370.287 203.322 371.622 203.674C372.957 204.027 374.325 203.23 374.678 201.895L380.419 180.14ZM2.50063 2.50005L0.0850465 3.1442C35.216 134.889 96.9069 199.053 166.836 220.331C236.594 241.556 313.72 219.832 379.26 181.662L378.002 179.502L376.744 177.342C311.785 215.173 236.16 236.198 168.291 215.547C100.594 194.949 39.7836 132.612 4.91622 1.8559L2.50063 2.50005Z" fill="#FF0000"/>
</svg>
