<svg width="308" height="252" viewBox="0 0 308 252" fill="none" xmlns="http://www.w3.org/2000/svg">
<path d="M304.48 10.0399C305.851 10.2067 307.097 9.23093 307.264 7.86034C307.431 6.48974 306.455 5.24339 305.084 5.07651L304.782 7.55818L304.48 10.0399ZM22.4211 250.902C23.7011 251.419 25.1584 250.801 25.676 249.522L34.112 228.663C34.6297 227.383 34.0117 225.926 32.7317 225.408C31.4518 224.89 29.9945 225.508 29.4768 226.788L21.9781 245.329L3.43708 237.831C2.15708 237.313 0.69979 237.931 0.182115 239.211C-0.335564 240.491 0.282416 241.948 1.56241 242.466L22.4211 250.902ZM304.782 7.55818L305.084 5.07651C169.958 -11.3759 83.5857 13.4398 38.6218 60.9777C-6.45886 108.639 -9.16652 178.289 21.0568 249.56L23.3584 248.584L25.66 247.608C-4.12085 177.38 -0.957531 110.099 42.2543 64.4135C85.5829 18.6045 169.925 -6.34296 304.48 10.0399L304.782 7.55818Z" fill="#FF0000"/>
</svg>
