<svg width="328" height="292" viewBox="0 0 328 292" fill="none" xmlns="http://www.w3.org/2000/svg">
<path d="M2.80254 9.17835C1.43197 9.34523 0.185606 8.36943 0.0187368 6.99884C-0.148162 5.62825 0.827654 4.38189 2.19826 4.21501L2.5004 6.69668L2.80254 9.17835ZM308.146 291.23C307.038 292.054 305.472 291.825 304.648 290.717L291.215 272.667C290.39 271.559 290.62 269.993 291.728 269.169C292.835 268.344 294.401 268.574 295.226 269.682L307.166 285.726L323.211 273.786C324.318 272.962 325.884 273.191 326.709 274.299C327.533 275.407 327.303 276.973 326.196 277.797L308.146 291.23ZM2.5004 6.69668L2.19826 4.21501C137.547 -12.2644 220.075 21.081 265.873 78.0492C311.559 134.878 320.132 214.545 309.127 289.587L306.653 289.224L304.18 288.862C315.087 214.486 306.425 136.471 261.976 81.182C217.64 26.032 137.136 -7.17743 2.80254 9.17835L2.5004 6.69668Z" fill="#FF0000"/>
</svg>
